<?xml version="1.0" encoding="UTF-8" standalone="no"?>
<svg
   xmlns:dc="http://purl.org/dc/elements/1.1/"
   xmlns:cc="http://creativecommons.org/ns#"
   xmlns:rdf="http://www.w3.org/1999/02/22-rdf-syntax-ns#"
   xmlns:svg="http://www.w3.org/2000/svg"
   xmlns="http://www.w3.org/2000/svg"
   xmlns:sodipodi="http://sodipodi.sourceforge.net/DTD/sodipodi-0.dtd"
   xmlns:inkscape="http://www.inkscape.org/namespaces/inkscape"
   inkscape:export-ydpi="384"
   inkscape:export-xdpi="384"
   inkscape:export-filename="D:\Godot\holon_production\godot_kanban_tasks\icon.png"
   inkscape:version="1.0 (4035a4fb49, 2020-05-01)"
   sodipodi:docname="icon.svg"
   id="svg4"
   version="1.1"
   width="16"
   viewBox="0 0 16 16"
   height="16">
  <metadata
     id="metadata10">
    <rdf:RDF>
      <cc:Work
         rdf:about="">
        <dc:format>image/svg+xml</dc:format>
        <dc:type
           rdf:resource="http://purl.org/dc/dcmitype/StillImage" />
      </cc:Work>
    </rdf:RDF>
  </metadata>
  <defs
     id="defs8" />
  <sodipodi:namedview
     inkscape:current-layer="svg4"
     inkscape:window-maximized="1"
     inkscape:window-y="-8"
     inkscape:window-x="-8"
     inkscape:cy="8.2581171"
     inkscape:cx="2.4983245"
     inkscape:zoom="22.96875"
     showgrid="false"
     id="namedview6"
     inkscape:window-height="987"
     inkscape:window-width="1680"
     inkscape:pageshadow="2"
     inkscape:pageopacity="0"
     guidetolerance="10"
     gridtolerance="10"
     objecttolerance="10"
     borderopacity="1"
     bordercolor="#666666"
     pagecolor="#ffffff" />
  <path
     d="m 2.2627715,1.2627715 c -0.554,0 -1,0.446 -1,1 v 2 h 4 v -2 c 0,-0.554 -0.446,-1 -1,-1 z"
     fill="#e0e0e0"
     id="path848"
     sodipodi:nodetypes="ssccsss"
     style="fill:#1d43a5;fill-opacity:1" />
  <path
     style="fill:#456ede;fill-opacity:1"
     sodipodi:nodetypes="ssccsss"
     id="path2"
     fill="#e0e0e0"
     d="M 2,1 C 1.446,1 1,1.446 1,2 V 4 H 5 V 2 C 5,1.446 4.554,1 4,1 Z" />
  <path
     id="path850"
     fill="#e0e0e0"
     d="m 1.2627715,5.2627715 v 7.0000035 l 2,3 2,-3 V 5.2627715 Z m 1,1 h 1 v 5.0000035 h -1 z"
     sodipodi:nodetypes="ccccccccccc"
     style="fill:#219824;fill-opacity:1" />
  <path
     style="fill:#53d957;fill-opacity:1"
     sodipodi:nodetypes="ccccccccccc"
     d="m 1,5 v 7 l 2,3 2,-3 V 5 Z m 1,1 h 1 v 5 H 2 Z"
     fill="#e0e0e0"
     id="path844" />
  <path
     d="M 10.262775,7.2627715 V 10.262775 H 7.2627715 v 2 h 3.0000035 v 3 h 2 v -3 h 3 v -2 h -3 V 7.2627715 Z"
     fill="#e0e0e0"
     id="path852"
     sodipodi:nodetypes="ccccccccccccc"
     style="fill:#b83a21;fill-opacity:1" />
  <path
     style="fill:#d36136;fill-opacity:1"
     sodipodi:nodetypes="ccccccccccccc"
     id="path846"
     fill="#e0e0e0"
     d="m 10,7 v 3 H 7 v 2 h 3 v 3 h 2 v -3 h 3 V 10 H 12 V 7 Z" />
</svg>
