<svg width="100" height="100" version="1.1" viewBox="0 0 26.458 26.458" xmlns="http://www.w3.org/2000/svg"><g stroke-linecap="round" stroke-linejoin="round"><path d="m1.3229 1.3229h10.583v23.812h-10.583z" fill="#575b64" stroke="#575b64" stroke-width="1.0583"/><path d="m14.552 1.3229h10.583v23.812h-10.583z" fill="#626771" stroke="#626771" stroke-width="1.0583"/><path d="m2.3476 10.695h15.217v3.9785h-15.217z" transform="matrix(.99153-.12989.11858.99294 0 0)" fill="#179ceb" stroke="#179ceb" stroke-width="1.0584"/></g><path d="m16.933 10.848c-.9234.09187-1.7773.46826-2.9104 1.1617 1.1037-.18609 2.0649-.1914 3.4396.16123l-.52917-1.3229" fill="#a4c1d3" fill-opacity=".60851"/><path d="m16.931 10.715c-.016153.000299-.032539.003438-.048059.009819-.04982.02053-.082375.069113-.082165.12299v1.0588c.000615.08981.088821.15306.17415.12506l.22738-.075448.050642.15193a.1825.1825 0 00.23048.11524.1825.1825 0 00.11524-.23048l-.050126-.15141.22118-.073381c.09245-.03185.11961-.14979.050643-.21911l-.79272-.79478c-.02598-.026228-.061098-.03993-.096635-.039274z" fill="#d8d8d8" stroke-linejoin="round"/></svg>