<svg width="100" height="100" version="1.1" viewBox="0 0 26.458 26.458" xmlns="http://www.w3.org/2000/svg"><g fill="#575b64" stroke="#575b64" stroke-linejoin="round"><path d="m1.3229 1.3229h10.583v23.812h-10.583z" stroke-width="1.0583"/><path d="m14.552 14.552h10.583v10.583h-10.583z" stroke-width="1.058"/><path d="m14.552 1.3229h10.583v10.583h-10.583z" stroke-width="1.0581"/></g><path d="m1.852 2.9104h9.5251v1.3229h-9.5251z" fill="#179ceb" stroke="#179ceb" stroke-width="1.0581" stroke-linejoin="round"/><path d="m2.1167 3.6049h7.9375" fill="none" stroke="#106da5" stroke-width=".79375" stroke-linecap="round"/><path d="m8.4073 3.5781-.23386-.80682.60804.65481.40926-.42095.10524.63142.42095.22217-.52619.070158-.22217.38587-.26894-.39756-.57296.15201z" fill="#afb7c9" fill-opacity=".84681"/><path d="m8.2585 3.454-.23386-.80682.60804.65481.40926-.42095.10524.63142.42095.22217-.52619.070158-.22217.38587-.26894-.39756-.57296.15201z" fill="#afb7c9" fill-opacity=".65957"/><path d="m8.8615 3.5711c-.016153.000299-.032539.0034-.048059.0098-.04982.02053-.082375.06911-.082165.12299v1.0588c.000615.08981.088821.15306.17415.12506l.22738-.07545.050642.15193a.1825.1825 0 00.23048.11524.1825.1825 0 00.11524-.23048l-.050126-.15141.22118-.07338c.09245-.03185.11961-.14979.050643-.21911l-.79272-.79478c-.02598-.02623-.061098-.03993-.096635-.03927z" fill="#d8d8d8"/></svg>