<svg width="100" height="100" version="1.1" viewBox="0 0 26.458 26.458" xmlns="http://www.w3.org/2000/svg"><g stroke-linecap="round" stroke-linejoin="round"><path d="m7.2099 4.0349h13.262v18.058h-13.262z" fill="#575b64" stroke="#575b64" stroke-width="1.0583"/><path d="m9.2603 22.49h9.5251v1.3229h-9.5251z" fill="#179ceb" stroke="#179ceb" stroke-width="1.0581"/><path d="m9.525 23.184h7.9375" fill="none" stroke="#106da5" stroke-width=".79375"/></g><circle cx="18.654" cy="23.184" r=".39464" fill="#106da5"/><path d="m18.362 23.157-.23386-.80682.60804.65481.40926-.42095.10524.63142.42095.22217-.52619.07016-.22217.38587-.26894-.39756-.57296.15201z" fill="#afb7c9" fill-opacity=".84681"/><path d="m18.816 23.15c-.01615.000299-.03254.0034-.04806.0098-.04982.02053-.08237.06911-.08216.12299v1.0588c.000615.08981.08882.15306.17415.12506l.22738-.07545.05064.15193a.1825.1825 0 00.23048.11524.1825.1825 0 00.11524-.23048l-.05013-.15141.22118-.07338c.09245-.03185.11961-.14979.05064-.21911l-.79271-.79478c-.02598-.02623-.0611-.03993-.09664-.03927z" fill="#d8d8d8"/><g fill="#646973" stroke="#646973" stroke-linecap="round" stroke-linejoin="round" stroke-width="1.0583"><path d="m7.6729 4.653h12.336v1.1451h-12.336z"/><path d="m7.6729 7.828h8.2021v12.688h-8.2021z"/><path d="m17.793 7.828h2.2159v12.688h-2.2159z"/></g></svg>