<svg width="100" height="100" version="1.1" viewBox="0 0 26.458 26.458" xmlns="http://www.w3.org/2000/svg"><path transform="translate(5.3909 6.057)" d="m7.8383-.63474c.61268 0 2.2256 4.4997 2.7212 4.8598.49567.36013 5.2736.50359 5.4629 1.0863.18933.5827-3.5917 3.5071-3.7811 4.0898-.18933.5827 1.1507 5.1711.65501 5.5312-.49567.36013-4.4454-2.3322-5.0581-2.3322s-4.5624 2.6923-5.0581 2.3322c-.49567-.36013.84434-4.9485.65501-5.5312-.18933-.5827-3.9704-3.5071-3.7811-4.0898.18933-.5827 4.9672-.72616 5.4629-1.0863.49567-.36013 2.1086-4.8598 2.7212-4.8598z" fill="#d0c268" stroke="#d0c268" stroke-width=".79375"/></svg>