<svg width="128" height="128" version="1.1" viewBox="0 0 128 128" xmlns="http://www.w3.org/2000/svg" xmlns:cc="http://creativecommons.org/ns#" xmlns:dc="http://purl.org/dc/elements/1.1/" xmlns:rdf="http://www.w3.org/1999/02/22-rdf-syntax-ns#"><path d="m124.43 124.43c1.0492-1.0492.52463-3.6723-.52461-8.9185l-5.2462-26.231c-1.0492-5.2462-1.1213-5.449-4.1969-8.3938l-72.397-72.397c-4.6502-4.6502-12.138-4.6502-16.788-.000004l-16.788 16.788c-4.6502 4.6502-4.6502 12.138.000005 16.788l72.397 72.397c3.1477 3.1477 3.1477 3.1477 8.3939 4.1969l26.231 5.2462c5.2462 1.0492 7.8693 1.5738 8.9185.52461zm-36.199-27.805c-2.3179 2.3179-6.076 2.3179-8.3939-.000008l-33.576-33.575c-2.3179-2.3179-2.3179-6.076-.000007-8.3939 2.3179-2.3179 6.076-2.3179 8.3939.000009l33.576 33.575c2.3179 2.3179 2.3179 6.076-.000011 8.3939z" fill="#e0e0e0"/></svg>